<svg width="802" height="397" viewBox="0 0 802 397" fill="none" xmlns="http://www.w3.org/2000/svg">
<g clip-path="url(#clip0_81_420)">
<path d="M325.398 72.8744C323.364 72.8897 321.37 73.4454 319.626 74.4839C312.704 61.2988 303.832 53.3223 294.131 53.3223C285.383 53.3223 277.312 59.7866 270.729 70.7255C266.44 68.2754 261.585 66.9714 256.637 66.9407C248.147 66.9407 240.397 70.7963 234.366 77.128C233.227 75.8377 231.832 74.7941 230.269 74.0623C228.706 73.3305 227.008 72.9261 225.28 72.8744C221.084 72.8744 217.263 75.2798 214.475 79.1619H336.221C333.406 75.2798 329.594 72.8744 325.398 72.8744Z" fill="#E9F4FF"/>
<path d="M770.632 164.61C768.668 164.624 766.743 165.158 765.056 166.157C758.366 153.414 749.787 145.712 740.416 145.712C731.98 145.712 724.177 151.955 717.825 162.514C713.676 160.151 708.979 158.899 704.196 158.879C695.982 158.879 688.482 162.585 682.656 168.704C681.554 167.464 680.208 166.462 678.7 165.759C677.192 165.056 675.555 164.668 673.89 164.618C669.828 164.618 666.158 166.935 663.45 170.694H781.037C778.364 166.927 774.685 164.61 770.632 164.61Z" fill="#E9F4FF"/>
<path d="M187.117 173.443C184.998 173.44 182.918 174.015 181.105 175.105C180.259 172.511 178.855 170.131 176.989 168.13C175.123 166.13 172.84 164.557 170.299 163.521C171.677 161.385 172.609 158.996 173.04 156.495C173.47 153.995 173.391 151.434 172.806 148.964C172.221 146.495 171.142 144.167 169.634 142.119C168.126 140.071 166.219 138.344 164.026 137.042C161.833 135.739 159.399 134.886 156.868 134.535C154.337 134.183 151.761 134.34 149.292 134.995C146.823 135.65 144.512 136.791 142.496 138.349C140.479 139.908 138.798 141.852 137.553 144.067C135.369 140.408 132.049 137.551 128.091 135.924C124.133 134.296 119.75 133.986 115.599 135.04C111.449 136.094 107.754 138.455 105.07 141.769C102.385 145.084 100.855 149.173 100.709 153.423C100.406 153.423 100.103 153.423 99.8183 153.423C93.6472 153.416 87.7256 155.841 83.3544 160.165C78.9833 164.489 76.5201 170.359 76.5059 176.485C76.5027 178.345 76.7301 180.198 77.1829 182.003H198.333C197.666 179.554 196.207 177.39 194.181 175.843C192.155 174.297 189.673 173.454 187.117 173.443Z" fill="#E9F4FF"/>
<path d="M691.867 66.4803H583.046C582.287 63.4236 582.24 60.2357 582.907 57.1581C583.573 54.0804 584.937 51.1938 586.894 48.7168C588.851 46.2398 591.35 44.2374 594.202 42.8613C597.055 41.4852 600.185 40.7715 603.356 40.7742C607.404 40.7669 611.365 41.9383 614.75 44.1433C618.666 39.808 624.107 37.1264 629.954 36.6494C635.8 36.1725 641.609 37.9365 646.186 41.5789C646.537 40.119 647.203 38.7519 648.137 37.5716C649.071 36.3914 650.251 35.426 651.597 34.742C652.943 34.058 654.422 33.6716 655.933 33.6093C657.444 33.547 658.95 33.8104 660.349 34.3813C661.747 34.9522 663.004 35.8171 664.034 36.9164C665.063 38.0157 665.84 39.3233 666.312 40.7494C666.784 42.1754 666.939 43.686 666.766 45.1771C666.593 46.6682 666.097 48.1045 665.312 49.3871C667.898 50.1992 670.25 51.6133 672.173 53.5115C674.096 55.4098 675.534 57.737 676.367 60.2992C677.755 59.4723 679.317 58.976 680.931 58.8491C682.544 58.7223 684.166 58.9684 685.667 59.5681C687.169 60.1679 688.51 61.1049 689.586 62.3057C690.662 63.5066 691.442 64.9385 691.867 66.4891V66.4803Z" fill="#E9F4FF"/>
<path d="M755.657 353.465H486.82L608.033 278.663C611.213 276.709 616.21 275.719 621.234 275.719C626.258 275.719 631.3 276.709 634.481 278.663L755.657 353.465Z" fill="#689B00"/>
<path d="M565.514 353.465H137.437L329.851 230.992C334.991 227.72 343.213 226.102 351.489 226.102C359.764 226.102 367.986 227.72 373.126 230.992L565.283 353.341L565.514 353.465Z" fill="#4C7300"/>
<path d="M616.994 353.465H371.55L482.215 285.172C485.119 283.403 489.68 282.519 494.267 282.519C498.855 282.519 503.461 283.403 506.365 285.172L616.994 353.465Z" fill="#A6CE00"/>
<path d="M640.815 201.245H637.153V211.485H640.815V201.245Z" fill="#EDEDED"/>
<path d="M640.814 201.245H638.988V211.485H640.814V201.245Z" fill="#CECECE"/>
<path d="M646.221 353.465H631.781L635.344 211.715C635.344 210.746 635.732 209.817 636.422 209.132C637.112 208.448 638.048 208.063 639.024 208.063C639.999 208.063 640.935 208.448 641.625 209.132C642.315 209.817 642.703 210.746 642.703 211.715L646.221 353.465Z" fill="#F8F8F8"/>
<path d="M646.221 353.465H639.023V208.142C639.979 208.144 640.896 208.514 641.582 209.174C642.269 209.833 642.67 210.732 642.702 211.679L646.221 353.465Z" fill="#EDEDED"/>
<path d="M624.564 190.593L623.311 195.121L635.173 198.356L636.426 193.828L624.564 190.593Z" fill="#EDEDED"/>
<path d="M618.752 191.835L618.136 194.093L629.946 197.268L630.562 195.01L618.752 191.835Z" fill="#CECECE"/>
<path d="M576.15 176.317C575.271 176.104 574.343 176.239 573.563 176.695C572.783 177.15 572.213 177.89 571.974 178.756C571.735 179.622 571.846 180.547 572.283 181.333C572.72 182.12 573.449 182.706 574.315 182.967L620.459 197.709C623.746 198.752 627.113 197.576 627.799 195.056L628.423 192.801C629.118 190.289 626.828 187.583 623.461 186.832L576.15 176.317Z" fill="#EDEDED"/>
<path d="M571.99 178.669L628.111 193.968L627.799 195.091C627.104 197.602 623.755 198.778 620.459 197.744L574.324 182.993C573.459 182.731 572.73 182.146 572.29 181.361C571.85 180.576 571.733 179.653 571.963 178.784L571.99 178.669Z" fill="#F8F8F8"/>
<path d="M639.923 209.154L644.512 207.98L641.436 196.134L636.848 197.308L639.923 209.154Z" fill="#EDEDED"/>
<path d="M639.931 209.16L642.229 208.572L639.154 196.726L636.855 197.314L639.931 209.16Z" fill="#CECECE"/>
<path d="M652.457 261.252C652.694 262.135 653.273 262.889 654.07 263.347C654.866 263.806 655.812 263.932 656.702 263.697C657.591 263.463 658.351 262.887 658.813 262.097C659.274 261.306 659.401 260.366 659.165 259.483L648.974 212.431C648.244 209.079 645.536 206.78 642.997 207.444L640.716 208.036C638.178 208.69 636.957 212.015 637.991 215.287L652.457 261.252Z" fill="#EDEDED"/>
<path d="M656.546 263.648L641.839 207.753L642.97 207.461C645.509 206.807 648.208 209.088 648.939 212.457L659.129 259.492C659.332 260.367 659.187 261.286 658.724 262.057C658.261 262.828 657.516 263.392 656.644 263.631L656.546 263.648Z" fill="#F8F8F8"/>
<path d="M651.723 187.699L648.399 184.358L639.646 192.939L642.97 196.28L651.723 187.699Z" fill="#EDEDED"/>
<path d="M651.724 187.687L650.059 186.013L641.305 194.594L642.97 196.267L651.724 187.687Z" fill="#CECECE"/>
<path d="M688.375 153.211C689.028 152.568 689.397 151.694 689.402 150.781C689.406 149.868 689.044 148.991 688.397 148.343C687.75 147.694 686.869 147.328 685.95 147.324C685.03 147.319 684.146 147.678 683.493 148.321L647.549 180.606C644.992 182.905 644.333 186.389 646.177 188.237L647.843 189.908C649.687 191.757 653.188 191.146 655.531 188.617L688.375 153.211Z" fill="#EDEDED"/>
<path d="M688.41 148.462L647.005 189.059L646.177 188.228C644.333 186.38 644.983 182.922 647.549 180.606L683.484 148.321C684.146 147.709 685.021 147.375 685.926 147.388C686.83 147.401 687.695 147.761 688.339 148.391L688.41 148.462Z" fill="#F8F8F8"/>
<path d="M640.681 190.775C641.906 191.111 643.004 191.8 643.835 192.756C644.665 193.712 645.191 194.891 645.346 196.144C645.501 197.397 645.278 198.667 644.705 199.794C644.133 200.921 643.236 201.853 642.128 202.474C641.021 203.094 639.753 203.374 638.485 203.279C637.217 203.183 636.006 202.716 635.006 201.937C634.006 201.157 633.261 200.101 632.866 198.901C632.471 197.701 632.444 196.412 632.788 195.197C633.252 193.576 634.341 192.202 635.819 191.375C637.296 190.547 639.044 190.331 640.681 190.775Z" fill="#999999"/>
<path d="M639.986 193.286C640.717 193.485 641.372 193.895 641.869 194.464C642.365 195.032 642.68 195.734 642.775 196.481C642.869 197.228 642.738 197.985 642.398 198.658C642.059 199.331 641.525 199.888 640.866 200.26C640.207 200.632 639.452 200.801 638.696 200.746C637.94 200.692 637.217 200.416 636.619 199.953C636.021 199.49 635.575 198.862 635.337 198.148C635.099 197.433 635.08 196.665 635.282 195.939C635.555 194.97 636.203 194.148 637.084 193.651C637.965 193.154 639.008 193.023 639.986 193.286Z" fill="white"/>
<path d="M390.123 173.08H385.785V185.213H390.123V173.08Z" fill="#EDEDED"/>
<path d="M390.115 173.08H387.95V185.213H390.115V173.08Z" fill="#CECECE"/>
<path d="M396.475 353.465H379.416L383.585 185.452C383.636 184.337 384.117 183.285 384.93 182.515C385.742 181.744 386.822 181.314 387.946 181.314C389.069 181.314 390.149 181.744 390.962 182.515C391.774 183.285 392.255 184.337 392.306 185.452L396.475 353.465Z" fill="#F8F8F8"/>
<path d="M396.475 353.465H387.941V181.251C389.082 181.253 390.176 181.697 390.991 182.488C391.807 183.279 392.279 184.355 392.306 185.487L396.475 353.465Z" fill="#EDEDED"/>
<path d="M381.022 150.645L376.181 153.445L383.516 165.946L388.358 163.146L381.022 150.645Z" fill="#EDEDED"/>
<path d="M381.032 150.639L378.607 152.041L385.943 164.542L388.368 163.14L381.032 150.639Z" fill="#CECECE"/>
<path d="M351.988 98.774C351.437 97.8359 350.534 97.1534 349.476 96.8764C348.419 96.5995 347.294 96.7509 346.349 97.2973C345.404 97.8438 344.716 98.7405 344.437 99.7902C344.158 100.84 344.311 101.957 344.861 102.895L371.585 153.378C373.492 156.977 377.322 158.746 380.004 157.19L382.427 155.793C385.099 154.236 385.438 150.062 383.211 146.649L351.988 98.774Z" fill="#EDEDED"/>
<path d="M346.5 97.3416L381.242 156.5L380.039 157.19C377.367 158.746 373.536 156.986 371.63 153.378L344.906 102.904C344.395 101.969 344.267 100.874 344.549 99.8474C344.831 98.8211 345.501 97.9425 346.42 97.3946L346.5 97.3416Z" fill="#F8F8F8"/>
<path d="M376.31 182.569L381.173 185.332L388.411 172.775L383.548 170.013L376.31 182.569Z" fill="#EDEDED"/>
<path d="M376.306 182.563L378.741 183.946L385.98 171.389L383.544 170.006L376.306 182.563Z" fill="#CECECE"/>
<path d="M345.574 233.459C345.119 234.391 345.038 235.459 345.346 236.447C345.653 237.436 346.328 238.272 347.233 238.787C348.138 239.301 349.206 239.455 350.22 239.218C351.235 238.981 352.122 238.37 352.701 237.509L383.434 189.298C385.616 185.858 385.215 181.685 382.543 180.146L380.111 178.766C377.438 177.237 373.608 179.049 371.746 182.666L345.574 233.459Z" fill="#EDEDED"/>
<path d="M347.062 238.897L381.313 179.474L382.525 180.155C385.197 181.684 385.598 185.849 383.415 189.298L352.727 237.5C352.166 238.408 351.274 239.065 350.237 239.335C349.199 239.606 348.097 239.468 347.16 238.95L347.062 238.897Z" fill="#F8F8F8"/>
<path d="M406.509 170.655L406.487 165.093L391.914 165.148L391.935 170.71L406.509 170.655Z" fill="#EDEDED"/>
<path d="M406.513 170.66L406.502 167.875L391.928 167.93L391.939 170.716L406.513 170.66Z" fill="#CECECE"/>
<path d="M466.279 171.63C467.336 171.582 468.334 171.13 469.064 170.37C469.795 169.61 470.203 168.6 470.203 167.549C470.203 166.499 469.795 165.488 469.064 164.728C468.334 163.968 467.336 163.517 466.279 163.468L408.875 161.204C404.777 161.036 401.321 163.442 401.33 166.51V169.296C401.33 172.382 404.822 174.743 408.911 174.54L466.279 171.63Z" fill="#EDEDED"/>
<path d="M470.278 167.642L401.312 167.907V166.519C401.312 163.442 404.741 161.036 408.848 161.213L466.234 163.477C467.306 163.504 468.326 163.942 469.082 164.698C469.837 165.454 470.269 166.471 470.287 167.536L470.278 167.642Z" fill="#F8F8F8"/>
<path d="M394.524 164.158C395.286 165.449 395.645 166.935 395.555 168.428C395.466 169.921 394.933 171.354 394.023 172.547C393.113 173.739 391.867 174.636 390.443 175.126C389.019 175.615 387.481 175.674 386.024 175.295C384.566 174.916 383.254 174.117 382.254 172.998C381.255 171.879 380.611 170.49 380.407 169.008C380.202 167.526 380.444 166.017 381.104 164.672C381.763 163.327 382.809 162.207 384.11 161.452C384.973 160.949 385.926 160.62 386.917 160.484C387.908 160.348 388.915 160.408 389.883 160.659C390.85 160.91 391.758 161.349 392.555 161.949C393.351 162.55 394.02 163.3 394.524 164.158Z" fill="#999999"/>
<path d="M391.869 165.688C392.319 166.459 392.528 167.344 392.472 168.233C392.415 169.122 392.094 169.974 391.55 170.683C391.006 171.391 390.263 171.923 389.415 172.213C388.566 172.502 387.65 172.536 386.783 172.31C385.915 172.083 385.134 171.607 384.539 170.94C383.944 170.274 383.56 169.448 383.437 168.566C383.314 167.683 383.457 166.785 383.848 165.983C384.239 165.181 384.86 164.512 385.634 164.061C386.15 163.759 386.722 163.562 387.315 163.48C387.909 163.399 388.513 163.435 389.093 163.586C389.672 163.737 390.216 164.001 390.693 164.362C391.169 164.722 391.569 165.173 391.869 165.688Z" fill="white"/>
<path d="M519.299 115.522H513.58V131.529H519.299V115.522Z" fill="#EDEDED"/>
<path d="M519.299 115.522H516.439V131.529H519.299V115.522Z" fill="#CECECE"/>
<path d="M527.681 353.465H505.18L510.676 131.891C510.735 130.416 511.366 129.02 512.438 127.997C513.51 126.974 514.939 126.403 516.426 126.403C517.913 126.403 519.342 126.974 520.414 127.997C521.486 129.02 522.118 130.416 522.176 131.891L527.681 353.465Z" fill="#F8F8F8"/>
<path d="M527.682 353.465H516.431V126.302C517.933 126.306 519.375 126.893 520.448 127.936C521.521 128.98 522.142 130.399 522.176 131.89L527.682 353.465Z" fill="#EDEDED"/>
<path d="M526.922 86.4971L519.832 84.4163L514.382 102.717L521.472 104.798L526.922 86.4971Z" fill="#EDEDED"/>
<path d="M526.919 86.4975L523.374 85.457L517.924 103.757L521.469 104.798L526.919 86.4975Z" fill="#CECECE"/>
<path d="M550.789 11.9115C551.154 10.5546 550.971 9.10975 550.278 7.88518C549.585 6.6606 548.438 5.75316 547.08 5.35636C545.723 4.95956 544.264 5.10481 543.013 5.76112C541.762 6.41744 540.819 7.53288 540.385 8.8696L515.745 80.01C513.963 85.077 515.745 90.3296 519.673 91.5057L523.236 92.5491C527.165 93.6987 531.503 90.2235 532.786 85.0151L550.789 11.9115Z" fill="#EDEDED"/>
<path d="M547.217 5.38536L521.383 91.9919L519.602 91.4701C515.673 90.3206 513.918 85.0856 515.682 79.9745L540.313 8.85173C540.754 7.51786 541.697 6.40488 542.946 5.74563C544.194 5.08638 545.651 4.93194 547.012 5.3146L547.217 5.38536Z" fill="#F8F8F8"/>
<path d="M491.77 110.884L493.5 118.02L512.19 113.556L510.46 106.419L491.77 110.884Z" fill="#EDEDED"/>
<path d="M491.774 110.885L492.639 114.453L511.329 109.989L510.464 106.421L491.774 110.885Z" fill="#CECECE"/>
<path d="M414.754 127.664C413.388 128.027 412.218 128.905 411.495 130.111C410.771 131.318 410.551 132.757 410.881 134.122C411.211 135.487 412.065 136.671 413.261 137.42C414.457 138.169 415.9 138.425 417.284 138.134L491.657 123.738C497.002 122.712 500.663 118.582 499.674 114.629L498.784 111.092C497.822 107.131 492.628 105.141 487.444 106.671L414.754 127.664Z" fill="#EDEDED"/>
<path d="M410.843 134.04L499.3 112.905L499.728 114.674C500.69 118.627 497.002 122.756 491.71 123.773L417.283 138.134C415.899 138.419 414.458 138.164 413.258 137.421C412.059 136.679 411.194 135.506 410.843 134.146V134.04Z" fill="#F8F8F8"/>
<path d="M530.619 128.912L535.979 123.857L522.739 110.022L517.379 115.077L530.619 128.912Z" fill="#EDEDED"/>
<path d="M530.619 128.91L533.3 126.382L520.06 112.547L517.379 115.074L530.619 128.91Z" fill="#CECECE"/>
<path d="M583.758 186.734C584.249 187.246 584.837 187.657 585.488 187.943C586.14 188.23 586.842 188.386 587.554 188.403C588.266 188.421 588.975 188.299 589.639 188.044C590.304 187.789 590.912 187.407 591.427 186.919C591.943 186.432 592.357 185.848 592.646 185.201C592.935 184.555 593.092 183.858 593.109 183.151C593.127 182.444 593.004 181.741 592.747 181.081C592.491 180.421 592.106 179.818 591.615 179.306L541.863 122.544C538.3 118.503 532.866 117.38 529.89 120.192L527.218 122.712C524.243 125.524 525.107 130.98 529 134.685L583.758 186.734Z" fill="#EDEDED"/>
<path d="M591.232 186.928L528.572 121.447L529.908 120.192C532.875 117.397 538.318 118.503 541.872 122.562L591.606 179.288C592.55 180.335 593.05 181.703 593.002 183.107C592.953 184.511 592.361 185.842 591.348 186.822L591.232 186.928Z" fill="#F8F8F8"/>
<path d="M526.06 111.597C525.497 113.487 524.382 115.17 522.857 116.431C521.331 117.693 519.462 118.477 517.487 118.684C515.512 118.891 513.52 118.512 511.762 117.595C510.004 116.678 508.56 115.264 507.611 113.532C506.663 111.8 506.253 109.828 506.434 107.865C506.615 105.902 507.378 104.036 508.628 102.504C509.877 100.971 511.556 99.841 513.452 99.2558C515.348 98.6707 517.377 98.6569 519.281 99.2163C520.545 99.5866 521.724 100.201 522.749 101.024C523.774 101.846 524.626 102.862 525.256 104.011C525.885 105.161 526.28 106.423 526.418 107.725C526.556 109.026 526.435 110.342 526.06 111.597Z" fill="#999999"/>
<path d="M522.176 110.456C521.839 111.582 521.173 112.584 520.263 113.334C519.353 114.085 518.239 114.551 517.062 114.673C515.885 114.795 514.697 114.568 513.65 114.021C512.603 113.474 511.743 112.631 511.178 111.599C510.613 110.566 510.369 109.391 510.477 108.221C510.585 107.051 511.04 105.939 511.784 105.026C512.528 104.112 513.528 103.438 514.658 103.089C515.788 102.74 516.997 102.731 518.132 103.063C518.887 103.284 519.591 103.651 520.203 104.142C520.815 104.634 521.323 105.24 521.699 105.927C522.075 106.613 522.31 107.367 522.392 108.144C522.474 108.921 522.401 109.707 522.176 110.456Z" fill="white"/>
<path d="M256.476 301.885L228.246 342.694V345.144H246.989V353.456H253.581V345.144H294.683L298.994 339.025V353.456H305.586V329.669L322.903 305.068V301.885H256.476Z" fill="#F8F8F8"/>
<path d="M298.994 339.025V353.457H302.281V334.347L298.994 339.025Z" fill="#DDDDDD"/>
<path d="M250.284 345.144H246.988V353.456H250.284V345.144Z" fill="#DDDDDD"/>
<path d="M257.403 303.627L231.578 340.952H293.748L319.563 303.627H257.403Z" fill="#00ABF4"/>
<path d="M253.242 340.952L279.654 303.627H278.799L252.387 340.952H253.242Z" fill="white"/>
<path d="M274.051 340.952L300.464 303.627H299.609L273.196 340.952H274.051Z" fill="white"/>
<path d="M244.254 322.639H306.414L306.896 321.94H244.726L244.254 322.639Z" fill="white"/>
<path d="M165.845 301.885L137.615 342.694V345.144H156.358V353.456H162.95V345.144H204.052L208.363 339.025V353.456H214.955V329.669L232.281 305.068V301.885H165.845Z" fill="#F8F8F8"/>
<path d="M208.363 339.025V353.457H211.659V334.347L208.363 339.025Z" fill="#DDDDDD"/>
<path d="M159.653 345.144H156.357V353.456H159.653V345.144Z" fill="#DDDDDD"/>
<path d="M166.772 303.627L140.956 340.952H203.117L228.941 303.627H166.772Z" fill="#00ABF4"/>
<path d="M162.611 340.952L189.023 303.627H188.168L161.756 340.952H162.611Z" fill="white"/>
<path d="M183.421 340.952L209.833 303.627H208.987L182.565 340.952H183.421Z" fill="white"/>
<path d="M153.623 322.639H215.793L216.265 321.94H154.104L153.623 322.639Z" fill="white"/>
<path d="M79.5519 329.873C77.7556 329.576 76.038 328.923 74.501 327.954C73.8329 327.583 73.1915 327.238 72.6036 326.972C69.8332 325.761 68.0159 326.76 67.9357 326.804L67.0449 325.336C67.1518 325.266 69.6639 323.815 73.2806 325.407C73.9398 325.699 74.6079 326.062 75.3116 326.442C78.5631 328.21 80.8525 329.183 82.9815 326.601C84.1833 325.028 84.8536 323.118 84.8967 321.145C85.1105 319.199 85.3332 317.183 87.3197 315.538C91.0433 312.443 96.985 314.38 97.2344 314.459L96.6821 316.086C96.6287 316.086 91.4085 314.38 88.4243 316.856C86.9723 318.059 86.8119 319.509 86.6427 321.339C86.5726 323.641 85.7679 325.861 84.3444 327.68C83.8113 328.432 83.0872 329.032 82.2455 329.417C81.4039 329.802 80.4746 329.959 79.5519 329.873Z" fill="#3A3A3A"/>
<path d="M95.9694 310.012V329.555C95.7518 329.555 95.5363 329.513 95.3353 329.43C95.1343 329.347 94.9516 329.226 94.7978 329.073C94.6439 328.921 94.5219 328.739 94.4386 328.54C94.3553 328.34 94.3125 328.126 94.3125 327.91V311.639C94.3172 311.206 94.4938 310.792 94.804 310.487C95.1143 310.183 95.533 310.012 95.9694 310.012Z" fill="#3F3F41"/>
<path d="M115.692 304.113H99.4083C97.5197 304.113 95.9697 305.97 95.9697 308.243V349.477H119.131V308.243C119.131 305.97 117.59 304.113 115.692 304.113Z" fill="#DDDDDD"/>
<path d="M107.55 304.113H99.4083C97.5197 304.113 95.9697 305.97 95.9697 308.243V349.477H107.55V304.113Z" fill="#F8F8F8"/>
<path d="M115.63 309.26H99.4795V332.438H115.63V309.26Z" fill="#1F3F4F"/>
<path d="M123.682 349.477H91.417V353.465H123.682V349.477Z" fill="#DDDDDD"/>
<path d="M105.501 311.948H104.067C103.615 311.948 103.183 312.126 102.864 312.443C102.544 312.76 102.365 313.189 102.365 313.637V328.626C102.365 329.074 102.544 329.504 102.864 329.821C103.183 330.137 103.615 330.315 104.067 330.315H110.988C111.438 330.313 111.868 330.134 112.186 329.817C112.503 329.501 112.681 329.073 112.681 328.626V313.637C112.681 313.191 112.503 312.762 112.186 312.446C111.868 312.129 111.438 311.95 110.988 311.948H109.465V310.825H105.501V311.948ZM110.988 313.08C111.137 313.08 111.28 313.139 111.385 313.243C111.49 313.348 111.549 313.489 111.549 313.637V328.626C111.549 328.775 111.491 328.917 111.386 329.023C111.281 329.129 111.138 329.19 110.988 329.192H104.067C103.915 329.192 103.77 329.133 103.664 329.026C103.557 328.92 103.497 328.776 103.497 328.626V313.637C103.499 313.488 103.56 313.347 103.667 313.243C103.773 313.138 103.917 313.08 104.067 313.08H110.988Z" fill="#32657E"/>
<path d="M123.682 349.477H107.55V353.465H123.682V349.477Z" fill="#BCBCBC"/>
<path d="M75.5256 337.742H72.7107C71.3479 337.742 70.2432 338.839 70.2432 340.192V351.007C70.2432 352.36 71.3479 353.457 72.7107 353.457H75.5256C76.8884 353.457 77.9932 352.36 77.9932 351.007V340.192C77.9932 338.839 76.8884 337.742 75.5256 337.742Z" fill="#3F3F3F"/>
<path d="M36.1165 337.742H33.3015C31.9387 337.742 30.834 338.839 30.834 340.192V351.007C30.834 352.36 31.9387 353.457 33.3015 353.457H36.1165C37.4793 353.457 38.584 352.36 38.584 351.007V340.192C38.584 338.839 37.4793 337.742 36.1165 337.742Z" fill="#3F3F3F"/>
<path fill-rule="evenodd" clip-rule="evenodd" d="M73.5575 329.156L73.3259 328.272C73.7 328.272 74.3414 328.157 74.8135 328.086C75.5504 328.015 76.2802 327.885 76.996 327.697C77.1763 327.615 77.3372 327.497 77.4682 327.349C77.5993 327.202 77.6974 327.028 77.7563 326.841C77.8151 326.653 77.8334 326.455 77.8098 326.26C77.7863 326.064 77.7215 325.876 77.6196 325.707C77.3411 325.335 76.9802 325.032 76.5647 324.82C76.1492 324.608 75.6902 324.494 75.2233 324.487C74.475 324.487 73.6644 324.558 73.4417 325.062C73.265 325.528 73.1832 326.023 73.2012 326.521H72.8983C72.8983 326.521 72.5598 325.186 72.0075 323.408C71.529 321.968 70.9331 320.569 70.2259 319.226C69.1569 317.13 67.8385 315.441 65.469 314.804H65.4066C61.9681 313.92 54.4586 313.849 54.4586 313.849C54.4586 313.849 46.9402 313.902 43.5106 314.804H43.4482C41.0697 315.432 39.7603 317.121 38.6913 319.226C37.984 320.569 37.3882 321.968 36.9097 323.408C36.3485 325.177 36.0189 326.521 36.0189 326.521H35.716C35.7339 326.023 35.6522 325.528 35.4755 325.062C35.2082 324.558 34.3976 324.478 33.6493 324.487C33.1824 324.494 32.7235 324.608 32.308 324.82C31.8925 325.032 31.5315 325.335 31.253 325.707C31.1523 325.876 31.0881 326.063 31.0647 326.258C31.0413 326.453 31.0591 326.65 31.1169 326.837C31.1748 327.024 31.2715 327.198 31.4008 327.346C31.5301 327.494 31.6891 327.613 31.8677 327.697C32.5921 327.889 33.3309 328.022 34.0769 328.095C34.549 328.166 35.1904 328.245 35.5646 328.281L35.3329 329.165C33.774 329.872 32.2953 330.58 31.6984 332.286C31.194 334.159 30.9896 336.099 31.0927 338.034C31.0927 339.484 31.0927 340.935 31.155 342.385C31.1127 343.717 31.3651 345.042 31.8944 346.267C32.5358 347.505 34.2372 348.177 35.52 348.557C38.9503 349.506 42.4889 350.014 46.0494 350.069L54.4586 350.273L62.8589 350.069C66.4223 350.015 69.964 349.507 73.3971 348.557C74.6799 348.177 76.3814 347.505 77.0227 346.267C77.5521 345.042 77.8044 343.717 77.7621 342.385C77.8244 340.935 77.8423 339.484 77.8245 338.034C77.9276 336.099 77.7232 334.159 77.2187 332.286C76.5951 330.571 75.1075 329.863 73.5575 329.156Z" fill="#CCCCCC"/>
<path fill-rule="evenodd" clip-rule="evenodd" d="M54.4312 313.84C54.4312 313.84 46.9128 313.893 43.4832 314.795H43.4208C41.0424 315.423 39.7329 317.112 38.6639 319.217C37.9567 320.561 37.3608 321.959 36.8823 323.399C36.3211 325.168 35.9915 326.512 35.9915 326.512H35.6886C35.7066 326.015 35.6248 325.519 35.4481 325.053C35.1809 324.549 34.3702 324.469 33.622 324.478C33.155 324.486 32.6961 324.6 32.2806 324.811C31.8651 325.023 31.5042 325.326 31.2257 325.699C31.1249 325.867 31.0608 326.055 31.0374 326.249C31.0139 326.444 31.0317 326.641 31.0896 326.828C31.1475 327.016 31.2441 327.189 31.3734 327.337C31.5027 327.485 31.6618 327.605 31.8404 327.688C32.5647 327.88 33.3035 328.013 34.0495 328.086C34.5217 328.157 35.1631 328.236 35.5372 328.272L35.3056 329.156C33.7467 329.864 32.2679 330.571 31.6711 332.278C31.1666 334.15 30.9622 336.09 31.0654 338.025C31.0654 339.476 31.0653 340.926 31.1277 342.376C31.0854 343.708 31.3377 345.033 31.8671 346.258C32.5085 347.496 34.2099 348.168 35.4927 348.548C38.9229 349.497 42.4615 350.005 46.022 350.06L54.4312 350.264V313.84Z" fill="#DEDEDE"/>
<path fill-rule="evenodd" clip-rule="evenodd" d="M35.1274 343.614H35.3056C35.4123 343.606 35.5195 343.606 35.6263 343.614L42.3251 344.198L43.3941 347.426L35.4837 346.665H35.3056C35.1048 346.662 34.9066 346.619 34.7225 346.539C34.5385 346.459 34.3721 346.344 34.233 346.2C34.0939 346.057 33.9848 345.887 33.9121 345.701C33.8393 345.515 33.8043 345.317 33.809 345.118C33.8051 344.747 33.9365 344.388 34.179 344.107C34.4214 343.826 34.7584 343.641 35.1274 343.588V343.614Z" fill="#3F3F3F"/>
<path fill-rule="evenodd" clip-rule="evenodd" d="M73.7531 343.614H73.575C73.4683 343.606 73.361 343.606 73.2543 343.614L66.5554 344.198L65.4775 347.426L73.3968 346.665H73.575C73.7758 346.662 73.9739 346.619 74.158 346.539C74.3421 346.459 74.5085 346.344 74.6475 346.2C74.7866 346.057 74.8957 345.887 74.9685 345.701C75.0412 345.515 75.0763 345.317 75.0715 345.118C75.0754 344.747 74.944 344.388 74.7016 344.107C74.4591 343.826 74.1221 343.641 73.7531 343.588V343.614Z" fill="#3F3F3F"/>
<path fill-rule="evenodd" clip-rule="evenodd" d="M43.9464 344.649C44.0538 345.442 44.3139 346.208 44.7125 346.904C45.2343 347.526 45.9776 347.925 46.7881 348.018C51.8757 348.416 56.9869 348.416 62.0744 348.018C62.8849 347.925 63.6282 347.526 64.15 346.904C64.5486 346.208 64.8087 345.442 64.9161 344.649C64.9695 344.33 64.7824 344.339 64.3816 344.322C60.8807 344.746 47.6166 344.534 44.4809 344.322C44.0801 344.339 43.893 344.33 43.9464 344.649Z" fill="#3F3F3F"/>
<path fill-rule="evenodd" clip-rule="evenodd" d="M36.8555 327.972C37.2029 326.663 37.7017 324.815 38.0313 323.762C38.4882 322.384 39.0572 321.044 39.7328 319.756C40.873 317.51 42.0311 316.414 43.7325 315.954C47.0374 315.07 54.3687 315.025 54.4222 315.025C54.4756 315.025 61.807 315.087 65.0495 315.91C66.8311 316.378 67.9625 317.475 69.1116 319.721C69.7872 321.008 70.3562 322.348 70.8131 323.727C71.1427 324.779 71.6415 326.61 71.9889 327.936L36.8555 327.972Z" fill="#3F3F3F"/>
<path fill-rule="evenodd" clip-rule="evenodd" d="M33.1323 336.779C33.1158 336.672 33.1273 336.563 33.1656 336.462C33.2039 336.361 33.2678 336.272 33.351 336.202C33.4343 336.133 33.5341 336.086 33.6409 336.066C33.7477 336.047 33.8579 336.054 33.9608 336.089L39.9025 337.513C40.1629 337.589 40.4002 337.728 40.593 337.918C40.7859 338.108 40.9281 338.342 41.0071 338.6L41.3634 340.015C41.4002 340.113 41.4096 340.219 41.3905 340.321C41.3714 340.424 41.3245 340.519 41.255 340.597C41.1854 340.676 41.0957 340.733 40.9956 340.765C40.8954 340.796 40.7885 340.8 40.6864 340.776L34.2369 339.953C33.9874 339.912 33.7588 339.789 33.5864 339.606C33.4141 339.422 33.3077 339.187 33.2838 338.936L33.1323 336.779Z" fill="white"/>
<path fill-rule="evenodd" clip-rule="evenodd" d="M75.7304 336.779C75.7469 336.672 75.7355 336.563 75.6972 336.462C75.6589 336.361 75.595 336.272 75.5117 336.202C75.4285 336.133 75.3286 336.086 75.2218 336.066C75.115 336.047 75.0049 336.054 74.902 336.089L68.9781 337.513C68.7177 337.589 68.4804 337.728 68.2875 337.918C68.0947 338.108 67.9525 338.342 67.8735 338.6L67.5172 340.015C67.4804 340.113 67.471 340.219 67.4901 340.321C67.5092 340.424 67.5561 340.519 67.6256 340.597C67.6952 340.676 67.7849 340.733 67.885 340.765C67.9852 340.796 68.0921 340.8 68.1942 340.776L74.6348 339.953C74.8865 339.915 75.118 339.794 75.2924 339.61C75.4667 339.425 75.5739 339.188 75.5968 338.936L75.7304 336.779Z" fill="white"/>
<path fill-rule="evenodd" clip-rule="evenodd" d="M54.432 315.025C54.2716 315.025 47.0204 315.096 43.7423 315.954C42.0408 316.405 40.8828 317.51 39.7425 319.756C39.067 321.044 38.4979 322.384 38.0411 323.762C37.7115 324.815 37.2126 326.663 36.8652 327.972H54.4409L54.432 315.025Z" fill="#6F6F6F"/>
<path d="M801.66 374.838C801.66 386.599 790.418 396.22 776.717 396.22H25.8196C12.0833 396.22 0.876953 386.599 0.876953 374.838C0.876953 363.077 12.1189 353.465 25.8196 353.465H776.681C790.418 353.465 801.66 363.068 801.66 374.838Z" fill="#689B00"/>
<path d="M781.794 396.221H20.7058C9.77562 396.221 0.84082 386.599 0.84082 374.838H801.677C801.659 386.599 792.724 396.221 781.794 396.221Z" fill="#4C7300"/>
<path d="M742.625 349.194C742.617 350.635 742.428 352.07 742.064 353.465H653.678C653.106 351.311 652.969 349.066 653.275 346.86C653.581 344.653 654.323 342.528 655.459 340.607C657.63 336.861 661.144 334.064 665.3 332.776C669.456 331.487 673.948 331.802 677.881 333.657C679.104 328.897 681.856 324.661 685.719 321.591C689.582 318.52 694.347 316.782 699.294 316.638C704.241 316.494 709.1 317.953 713.138 320.794C717.175 323.634 720.171 327.703 721.673 332.384C722.873 332.123 724.097 331.992 725.326 331.995C729.916 332.002 734.316 333.817 737.56 337.042C740.803 340.266 742.625 344.637 742.625 349.194Z" fill="#4C7300"/>
<path d="M679.806 350.91C679.799 351.773 679.685 352.631 679.467 353.466H626.678C626.336 352.179 626.252 350.838 626.433 349.519C626.613 348.201 627.054 346.93 627.729 345.781C629.027 343.553 631.121 341.89 633.596 341.122C636.071 340.354 638.746 340.536 641.091 341.634C641.824 338.792 643.467 336.264 645.774 334.431C648.081 332.599 650.927 331.561 653.88 331.475C656.833 331.389 659.735 332.26 662.146 333.955C664.557 335.651 666.347 338.079 667.246 340.873C668.755 340.552 670.317 340.569 671.818 340.924C673.32 341.279 674.723 341.962 675.924 342.924C677.125 343.886 678.095 345.102 678.762 346.484C679.429 347.866 679.776 349.378 679.779 350.91H679.806Z" fill="#A6CE00"/>
<path d="M579.964 350.865C579.963 351.739 579.871 352.61 579.688 353.465H484.273C481.912 349.378 481.069 344.599 481.891 339.958C482.713 335.318 485.148 331.111 488.773 328.069C492.397 325.028 496.982 323.344 501.728 323.312C506.474 323.279 511.081 324.9 514.748 327.891C517.484 322.974 521.771 319.085 526.951 316.821C532.13 314.558 537.915 314.045 543.416 315.362C548.917 316.679 553.831 319.752 557.402 324.11C560.972 328.468 563.003 333.87 563.181 339.484C564.599 338.921 566.108 338.622 567.635 338.6C569.257 338.597 570.864 338.912 572.363 339.527C573.862 340.143 575.224 341.046 576.37 342.186C577.516 343.326 578.423 344.68 579.04 346.169C579.657 347.659 579.971 349.255 579.964 350.865Z" fill="#689B00"/>
<path d="M565.693 351.918C565.694 352.438 565.64 352.957 565.532 353.466H508.797C507.419 351.036 506.939 348.204 507.439 345.46C507.939 342.716 509.389 340.231 511.538 338.434C513.686 336.638 516.399 335.642 519.208 335.619C522.018 335.596 524.747 336.547 526.925 338.309C528.547 335.38 531.095 333.062 534.175 331.712C537.255 330.362 540.697 330.055 543.97 330.838C547.244 331.621 550.167 333.451 552.289 336.046C554.411 338.641 555.616 341.856 555.716 345.197C556.825 344.765 558.023 344.608 559.207 344.74C560.391 344.873 561.524 345.291 562.508 345.958C563.492 346.625 564.297 347.521 564.852 348.568C565.407 349.614 565.695 350.78 565.693 351.962V351.918Z" fill="#4C7300"/>
<path d="M415.779 349.61C415.772 350.91 415.605 352.205 415.28 353.465H335.473C335.133 352.208 334.959 350.912 334.956 349.61C334.958 345.491 336.607 341.542 339.54 338.629C342.472 335.716 346.45 334.078 350.599 334.073C352.916 334.079 355.203 334.592 357.297 335.576C358.409 331.284 360.896 327.466 364.384 324.699C367.871 321.932 372.171 320.366 376.633 320.236C381.096 320.107 385.48 321.421 389.125 323.98C392.77 326.54 395.478 330.206 396.84 334.427C397.923 334.192 399.028 334.073 400.136 334.073C404.286 334.075 408.265 335.713 411.198 338.627C414.131 341.54 415.779 345.491 415.779 349.61Z" fill="#689B00"/>
<path d="M371.898 350.848C371.897 351.743 371.784 352.634 371.559 353.501H317.398C317.166 352.636 317.05 351.744 317.051 350.848C317.056 348.054 318.176 345.375 320.166 343.4C322.156 341.424 324.855 340.312 327.669 340.307C329.241 340.308 330.792 340.655 332.212 341.324C332.966 338.411 334.654 335.82 337.02 333.943C339.387 332.065 342.305 331.002 345.333 330.914C348.361 330.826 351.336 331.718 353.81 333.456C356.283 335.193 358.12 337.682 359.043 340.546C359.778 340.385 360.528 340.305 361.279 340.307C364.096 340.307 366.796 341.418 368.788 343.394C370.779 345.371 371.898 348.052 371.898 350.848Z" fill="#A6CE00"/>
</g>
<defs>
<clipPath id="clip0_81_420">
<rect width="800.839" height="396.22" fill="white" transform="translate(0.830078)"/>
</clipPath>
</defs>
</svg>
