<svg width="546" height="448" viewBox="0 0 546 448" fill="none" xmlns="http://www.w3.org/2000/svg">
<path fill-rule="evenodd" clip-rule="evenodd" d="M311.59 79.559C313.527 63.4167 311.132 39.858 323.867 28.7647C327.589 11.5463 354.672 15.5639 350.457 4.61411C347.847 -2.25531 335.113 1.02694 329.947 2.26452C326.055 3.20615 288.901 14.9541 274.615 16.5952L256.482 11.5284C233.165 14.6671 219.714 33.2038 206.755 47.956C195.877 60.3138 181.17 90.5446 192.873 108.66C192.221 112.606 191.566 116.564 190.909 120.533L217.4 159.185C226.538 165.732 227.749 170.601 237.587 177.058C239.622 180.116 241.631 183.138 243.676 186.196C251.747 191.487 275.44 191.577 279.449 188.107C317.598 191.694 313.473 114.345 325.598 98.2032C324.064 90.8496 317.643 83.2896 311.59 79.559ZM146.984 311.693C155.055 309.586 168.901 308.51 176.13 304.914C187.653 299.138 227.291 271.427 214.692 248.864C210.799 201.334 153.441 241.51 129.021 224.839C104.314 221.664 76.5319 174.924 69.1065 154.889C66.2009 146.971 67.4026 149.688 63.4387 143.41C63.4387 142.765 60.9098 145.599 60.9367 144.935C53.7086 153.347 54.9641 160.692 53.8341 181.21L44.077 180.6C43.4493 188.035 42.7049 192.097 39.2254 195.909C38.5169 197.173 37.7726 198.393 37.0641 199.657C30.9211 197.595 33.9881 200.554 31.495 195.388C8.74345 196.518 10.4294 219.387 -0.0361328 232.408C0.475038 275.086 84.9707 327.782 146.984 311.693ZM427.679 182.053C390.803 187.622 368.258 199.37 354.331 209.011C344.619 215.79 341.776 220.346 339.686 223.198C337.597 226.05 336.153 232.372 337.202 239.035C338.251 245.699 340.951 252.676 346.699 256.586C391.978 253.232 470.582 250.371 485.872 288.422C486.697 293.713 487.881 296.887 487.989 298.161C502.974 294.457 492.024 295.775 514.094 299.246C519.161 300.026 531.618 297.228 539.895 295.201C542.301 294.512 544.383 292.99 545.769 290.906C545.403 289.07 545.238 287.199 545.276 285.328C545.276 285.328 553.024 285.893 556.208 283.453C577.13 280.046 566.126 270.217 576.018 259.132C570.045 188.035 497.118 171.516 427.67 182.053H427.679ZM346.861 336.678C336.35 344.704 331.947 342.722 325.777 355.143C325.149 355.143 326.728 357.017 326.073 357.017C332.351 369.51 346.699 374.558 357.254 383.338C360.546 386.109 369.451 401.543 373.675 402.673C378.419 408.341 381.531 424.016 384.616 424.016C387.862 428.429 384.364 438.805 387.521 442.849C387.754 461.431 385.154 462.758 381.925 466.318C381.925 467.609 383.719 470.99 383.719 472.246C384.616 473.143 392.05 478.479 395.296 477.824C405.394 478.147 446.88 510.503 450.171 516.736C479.927 518.969 477.765 509.884 498.293 501.185C503.844 498.8 508.247 501.06 511.888 497.257C515.7 493.365 516.022 485.68 519.681 481.707C520.175 408.493 420.595 339.216 346.861 336.678ZM229.65 353.394C225.507 357.806 214.136 359.439 210.952 364.461C206.073 372.092 194.908 389.472 186.147 397.749C157.978 424.492 97.6603 437.926 67.8958 412.367C65.9587 412.511 67.0887 413.623 69.4024 420.932C71.5726 434.787 82.7377 467.269 78.6304 475.573C81.3208 484.792 84.1008 481.42 89.1318 486.523C92.6114 489.984 94.0283 499.024 97.9832 501.463C102.533 501.176 107.068 500.86 111.587 500.513C112.404 503.042 113.247 505.571 114.072 508.162L131.532 506.889C134.805 507.633 144.697 512.754 147.603 513.534C154.06 513.059 160.534 512.637 166.991 512.18C181.797 516.117 194.702 509.938 207.185 501.508C214.153 496.836 221.785 497.571 227.964 492.289C236.932 484.595 249.128 469.573 254.868 459.189C268.894 433.72 264.15 372.747 251.433 357.663C246.438 352.237 240.564 352.139 229.65 353.394Z" fill="#333333"/>
</svg>
